<svg width="236" height="236" viewBox="0 0 236 236" fill="none" xmlns="http://www.w3.org/2000/svg">
<rect width="236" height="236" fill="#00AF17"/>
<path d="M152.105 151.343L204.668 151.343L205 151.343L205 122.119L152.105 122.119L189.696 85.7944L169.067 65.3204L117.999 116.339L66.9302 65.3204L46.3014 85.7943L83.9017 122.119L31 122.119L31 151.343L83.5659 151.343L46.1381 186.676L66.7669 207.645L102.361 171.321L102.361 223L133.3 223L133.3 171.321L168.904 207.645L189.532 186.676L152.105 151.343Z" fill="white"/>
<path d="M102.198 80.3461L133.137 80.3461L133.137 11L102.198 11L102.198 80.3461Z" fill="white"/>
</svg>
