<svg width="174" height="212" viewBox="0 0 174 212" fill="none" xmlns="http://www.w3.org/2000/svg">
<path d="M121.105 140.343L173.668 140.343L174 140.343L174 111.119L121.105 111.119L158.696 74.7944L138.067 54.3204L86.9986 105.339L35.9302 54.3204L15.3014 74.7943L52.9017 111.119L-6.43947e-06 111.119L-8.99431e-06 140.343L52.5659 140.343L15.1381 175.676L35.7669 196.645L71.3614 160.321L71.3614 212L102.3 212L102.3 160.321L137.904 196.645L158.532 175.676L121.105 140.343Z" fill="white"/>
<path d="M71.198 69.3461L102.137 69.3461L102.137 8.9763e-06L71.198 6.27155e-06L71.198 69.3461Z" fill="white"/>
</svg>
