<svg width="1236" height="213" viewBox="0 0 1236 213" fill="none" xmlns="http://www.w3.org/2000/svg">
<path d="M1021.01 212.373C1000.18 212.373 984.098 207.627 972.76 198.135C961.422 188.555 955.753 174.712 955.753 156.606L955.753 88H934V52.0088L955.753 49.8994V18.2588L1019.03 4.41602V48.4492H1050.94V88H1019.03L1019.03 155.288C1019.03 160.562 1020.31 164.692 1022.86 167.681C1025.49 170.581 1029.45 172.031 1034.72 172.031C1037.8 172.031 1040.39 171.768 1042.5 171.24C1044.7 170.625 1046.76 170.01 1048.7 169.395L1052.26 170.977V208.682C1047.25 209.824 1042.19 210.703 1037.1 211.318C1032.09 212.021 1026.72 212.373 1021.01 212.373Z" fill="white"/>
<path d="M885.156 212.373C868.633 212.373 854.351 209.429 842.31 203.54C830.356 197.651 821.128 189.258 814.624 178.359C808.208 167.461 805 154.497 805 139.468C805 124.351 808.208 111.343 814.624 100.444C821.128 89.5459 830.356 81.1523 842.31 75.2637C854.351 69.2871 868.633 66.2988 885.156 66.2988C901.68 66.2988 915.918 69.2871 927.871 75.2637C939.912 81.1523 949.141 89.5459 955.557 100.444C962.061 111.343 965.312 124.351 965.312 139.468C965.312 154.497 962.061 167.461 955.557 178.359C949.141 189.258 939.912 197.651 927.871 203.54C915.918 209.429 901.68 212.373 885.156 212.373ZM885.156 174.009C897.021 174.009 902.954 162.451 902.954 139.336C902.954 116.221 897.021 104.663 885.156 104.663C873.291 104.663 867.358 116.221 867.358 139.336C867.358 162.451 873.291 174.009 885.156 174.009Z" fill="white"/>
<path d="M783.12 212.373C766.597 212.373 752.314 209.429 740.273 203.54C728.32 197.651 719.092 189.258 712.588 178.359C706.172 167.461 702.964 154.497 702.964 139.468C702.964 124.351 706.172 111.343 712.588 100.444C719.092 89.5459 728.32 81.1523 740.273 75.2637C752.314 69.2871 766.597 66.2988 783.12 66.2988C799.644 66.2988 813.882 69.2871 825.835 75.2637C837.876 81.1523 847.104 89.5459 853.521 100.444C860.024 111.343 863.276 124.351 863.276 139.468C863.276 154.497 860.024 167.461 853.521 178.359C847.104 189.258 837.876 197.651 825.835 203.54C813.882 209.429 799.644 212.373 783.12 212.373ZM783.12 174.009C794.985 174.009 800.918 162.451 800.918 139.336C800.918 116.221 794.985 104.663 783.12 104.663C771.255 104.663 765.322 116.221 765.322 139.336C765.322 162.451 771.255 174.009 783.12 174.009Z" fill="white"/>
<path d="M493 210V164.517H514.094V45.6006H493V0.117188H614.157C640.349 0.117188 660.476 5.03906 674.538 14.8828C688.601 24.6387 695.632 38.9648 695.632 57.8613C695.632 70.0781 692.6 80.2295 686.535 88.3154C680.471 96.4014 672.253 102.158 661.882 105.586C670.144 108.311 676.252 112.573 680.207 118.374C684.25 124.175 686.359 131.25 686.535 139.6L686.799 150.542C686.975 155.2 687.985 158.716 689.831 161.089C691.765 163.374 695.017 164.517 699.587 164.517H760.5V210H667.683C650.896 210 638.459 206.133 630.373 198.398C622.375 190.576 618.288 179.15 618.112 164.121L617.849 146.587C617.585 132.524 611.081 125.493 598.337 125.493H581.066V164.517H598.864V210H493ZM601.501 44.2822H581.066V88.8428H601.501C618.376 88.8428 626.813 81.416 626.813 66.5625C626.813 51.709 618.376 44.2822 601.501 44.2822Z" fill="white"/>
<path d="M33.7257 4H0V212.455H127.205V181.269H33.7257V4Z" fill="white"/>
<path d="M181.642 24.426C181.642 12.9364 172.111 4 160.564 4C148.833 4 139.485 12.9364 139.485 24.426C139.485 36.0981 148.833 45.3992 160.564 45.3992C172.111 45.3992 181.642 36.0981 181.642 24.426Z" fill="white"/>
<path d="M176.51 62.1777H144.067V212.455H176.51V62.1777Z" fill="white"/>
<path d="M228.015 62.1777H195.572V212.455H228.015V134.58C228.015 104.488 241.579 87.8924 265.956 87.8924C288.318 87.8924 300.598 103.759 300.598 131.845V212.455H333.041V128.927C333.041 85.5214 311.046 58.1655 275.854 58.1655C254.042 58.1655 237.546 67.1019 228.015 82.9684V62.1777Z" fill="white"/>
<path d="M382.53 4H350.087V212.455H382.53V139.14L443.016 212.455H483.707L419.188 137.498L483.707 62.3601H443.016L382.53 135.857V4Z" fill="white"/>
<path d="M1183.1 140.513L1235.67 140.513L1236 140.513L1236 111.289L1183.1 111.289L1220.7 74.9644L1200.07 54.4905L1149 105.509L1097.93 54.4905L1077.3 74.9644L1114.9 111.289L1062 111.289L1062 140.513L1114.57 140.513L1077.14 175.846L1097.77 196.815L1133.36 160.491L1133.36 212.17L1164.3 212.17L1164.3 160.491L1199.9 196.815L1220.53 175.846L1183.1 140.513Z" fill="white"/>
<path d="M1133.2 69.5161L1164.14 69.5161L1164.14 0.170053L1133.2 0.17005L1133.2 69.5161Z" fill="white"/>
</svg>
